<svg xmlns="http://www.w3.org/2000/svg" version="1.1" width="1080px" height="1080px" style="shape-rendering:geometricPrecision; text-rendering:geometricPrecision; image-rendering:optimizeQuality; fill-rule:evenodd; clip-rule:evenodd" xmlns:xlink="http://www.w3.org/1999/xlink">
<g><path style="opacity:0.988" fill="rgb(6, 40, 65)" d="M 598.5,207.5 C 669.834,207.333 741.167,207.5 812.5,208C 852.09,215.274 880.257,237.107 897,273.5C 913.835,322.326 903.335,364.159 865.5,399C 849.632,411.516 831.632,419.183 811.5,422C 732.167,422.5 652.834,422.667 573.5,422.5C 573.5,450.167 573.5,477.833 573.5,505.5C 650.501,505.333 727.501,505.5 804.5,506C 853.042,511.55 885.208,537.383 901,583.5C 912.914,636.111 896.748,677.611 852.5,708C 839.436,715.466 825.436,720.133 810.5,722C 731.501,722.5 652.501,722.667 573.5,722.5C 573.879,742.197 573.379,761.864 572,781.5C 561.263,831.57 530.763,861.404 480.5,871C 409.167,871.667 337.833,871.667 266.5,871C 215.787,861.287 185.287,831.12 175,780.5C 169.928,733.151 187.095,696.318 226.5,670C 239.561,662.535 253.561,657.869 268.5,656C 347.499,655.5 426.499,655.333 505.5,655.5C 505.5,628.167 505.5,600.833 505.5,573.5C 428.499,573.667 351.499,573.5 274.5,573C 234.972,569.002 205.472,549.836 186,515.5C 173.414,488.055 171.08,459.722 179,430.5C 191.757,394.076 216.591,370.243 253.5,359C 259.075,357.485 264.742,356.485 270.5,356C 348.833,355.5 427.166,355.333 505.5,355.5C 505.333,339.83 505.5,324.163 506,308.5C 512.731,252.608 543.565,218.941 598.5,207.5 Z M 607.5,274.5 C 674.212,274.014 740.878,274.514 807.5,276C 834.344,286.865 842.844,306.032 833,333.5C 826.063,345.221 815.897,352.387 802.5,355C 726.167,355.5 649.834,355.667 573.5,355.5C 573.333,339.497 573.5,323.497 574,307.5C 578.459,289.54 589.625,278.54 607.5,274.5 Z M 278.5,422.5 C 354.167,422.5 429.833,422.5 505.5,422.5C 505.5,450.167 505.5,477.833 505.5,505.5C 428.499,505.667 351.499,505.5 274.5,505C 250.908,498.004 240.075,482.171 242,457.5C 246.572,437.758 258.739,426.092 278.5,422.5 Z M 573.5,573.5 C 650.501,573.333 727.501,573.5 804.5,574C 825.371,579.204 836.371,592.537 837.5,614C 836.934,632.788 827.934,645.788 810.5,653C 807.529,653.794 804.529,654.461 801.5,655C 725.501,655.5 649.501,655.667 573.5,655.5C 573.5,628.167 573.5,600.833 573.5,573.5 Z M 277.5,722.5 C 353.5,722.5 429.5,722.5 505.5,722.5C 505.667,738.837 505.5,755.17 505,771.5C 500.716,789.451 489.549,800.284 471.5,804C 406.167,804.667 340.833,804.667 275.5,804C 248.814,796.483 237.981,778.983 243,751.5C 249.242,735.413 260.742,725.746 277.5,722.5 Z"/></g>
</svg>
